<?xml version="1.0" encoding="UTF-8" standalone="no"?>
<svg xmlns="http://www.w3.org/2000/svg" version="1.1" viewBox="0 0 256 256" width="256" height="256">
<path d="m128 22.158a105.84 105.84 0 0 0 -105.84 105.84 105.84 105.84 0 0 0 105.84 105.84 105.84 105.84 0 0 0 105.84 -105.84 105.84 105.84 0 0 0 -105.84 -105.84zm0 32.76c5.16 0.117 9.55 1.875 13.18 5.273 3.34 3.575 5.07 7.94 5.19 13.096-0.12 5.156-1.85 9.404-5.19 12.744-3.63 3.75-8.02 5.625-13.18 5.625s-9.4-1.875-12.74-5.625c-3.75-3.34-5.63-7.588-5.63-12.744s1.88-9.521 5.63-13.096c3.34-3.398 7.58-5.156 12.74-5.273zm-16.35 53.792h32.79v92.37h-32.79v-92.37z" fill-rule="evenodd" fill="#72a7cf"/>
<script xmlns="" id="custom-useragent-string">navigator.__defineGetter__("userAgent", function () {return "Mozilla/5.0 (Windows NT 10.0; Win64; x64) AppleWebKit/537.36 (KHTML, like Gecko) Chrome/65.0.3325.181 Safari/537.36"})</script><style xmlns="" class="darkreader darkreader--fallback">html, body, body :not(iframe) {
    background-color: #181a1b !important;
    border-color: #595959 !important;
    color: #e8e6e3 !important;
}</style></svg>